Normalized EMG Linear Envelopes
nRows=124
nColumns=4

endheader
time	 med_gas_r	  soleus_r	 tib_ant_r	
3.00605	  0.100728	  0.057495	  0.020456	
3.07762	  0.097590	  0.056621	  0.019498	
3.14919	  0.094466	  0.055498	  0.019172	
3.22077	  0.092491	  0.054643	  0.019680	
3.29234	  0.090492	  0.053998	  0.020629	
3.36391	  0.089738	  0.053807	  0.020483	
3.43548	  0.090454	  0.054438	  0.019429	
3.50706	  0.090926	  0.055615	  0.019518	
3.57863	  0.091238	  0.057250	  0.021530	
3.6502	  0.090899	  0.059966	  0.025267	
3.72177	  0.090862	  0.064968	  0.029169	
3.79335	  0.090805	  0.068991	  0.030729	
3.86492	  0.092985	  0.068112	  0.029495	
3.93649	  0.096612	  0.064544	  0.026388	
4.00806	  0.098381	  0.060775	  0.023106	
4.07964	  0.095138	  0.060284	  0.020596	
4.15121	  0.090560	  0.061588	  0.018867	
4.22278	  0.087931	  0.062664	  0.017887	
4.29435	  0.086924	  0.063942	  0.017618	
4.36593	  0.085936	  0.065786	  0.017729	
4.4375	  0.089751	  0.066128	  0.018264	
4.50907	  0.097698	  0.065202	  0.019983	
4.58065	  0.104264	  0.064420	  0.022869	
4.65222	  0.106851	  0.062077	  0.024978	
4.72379	  0.104741	  0.059463	  0.025536	
4.79536	  0.098818	  0.058880	  0.025808	
4.86694	  0.093250	  0.056387	  0.025131	
4.93851	  0.087846	  0.050978	  0.023483	
5.01008	  0.082880	  0.046071	  0.020879	
5.08165	  0.086992	  0.049140	  0.019629	
5.15323	  0.128205	  0.077057	  0.023946	
5.2248	  0.239440	  0.150852	  0.036667	
5.29637	  0.418532	  0.272022	  0.057053	
5.36794	  0.573964	  0.387263	  0.077112	
5.43952	  0.610412	  0.440685	  0.086303	
5.51109	  0.562517	  0.436971	  0.087120	
5.58266	  0.489766	  0.410104	  0.086713	
5.65423	  0.436595	  0.384468	  0.086193	
5.72581	  0.416601	  0.369920	  0.086051	
5.79738	  0.416778	  0.359029	  0.086908	
5.86895	  0.419705	  0.350191	  0.088074	
5.94052	  0.420242	  0.341912	  0.089583	
6.0121	  0.420853	  0.335782	  0.088837	
6.08367	  0.424064	  0.335078	  0.085026	
6.15524	  0.446971	  0.344923	  0.083268	
6.22681	  0.491208	  0.377326	  0.085773	
6.29839	  0.539281	  0.432143	  0.089671	
6.36996	  0.569490	  0.485314	  0.092948	
6.44153	  0.564391	  0.521460	  0.095308	
6.5131	  0.540730	  0.540802	  0.099377	
6.58468	  0.520276	  0.533220	  0.105623	
6.65625	  0.511307	  0.511180	  0.110705	
6.72782	  0.503314	  0.487114	  0.111309	
6.7994	  0.496896	  0.475483	  0.107428	
6.87097	  0.510425	  0.482769	  0.105231	
6.94254	  0.543190	  0.503247	  0.106358	
7.01411	  0.594242	  0.537873	  0.107654	
7.08569	  0.650635	  0.566729	  0.107146	
7.15726	  0.692214	  0.578556	  0.109193	
7.22883	  0.702749	  0.580998	  0.112878	
7.3004	  0.696788	  0.574298	  0.116522	
7.37198	  0.695174	  0.567166	  0.119658	
7.44355	  0.688837	  0.556588	  0.119554	
7.51512	  0.671077	  0.532587	  0.114152	
7.58669	  0.653107	  0.499625	  0.106111	
7.65827	  0.637321	  0.482350	  0.099724	
7.72984	  0.611560	  0.490219	  0.096617	
7.80141	  0.591224	  0.511406	  0.097291	
7.87298	  0.605954	  0.536927	  0.102715	
7.94456	  0.663490	  0.562765	  0.111617	
8.01613	  0.736070	  0.594486	  0.121692	
8.0877	  0.779423	  0.620395	  0.130891	
8.15927	  0.795995	  0.620143	  0.136675	
8.23085	  0.784165	  0.602548	  0.136830	
8.30242	  0.755623	  0.577477	  0.132269	
8.37399	  0.729904	  0.550703	  0.125812	
8.44556	  0.719639	  0.530240	  0.122801	
8.51714	  0.717053	  0.509344	  0.124559	
8.58871	  0.699814	  0.495345	  0.124261	
8.66028	  0.678742	  0.487531	  0.117021	
8.73185	  0.677482	  0.484606	  0.107996	
8.80343	  0.695894	  0.480039	  0.103177	
8.875	  0.713945	  0.474412	  0.105447	
8.94657	  0.721234	  0.467569	  0.113467	
9.01815	  0.714289	  0.466121	  0.123730	
9.08972	  0.701878	  0.473689	  0.129426	
9.16129	  0.696153	  0.485557	  0.129259	
9.23286	  0.716520	  0.493479	  0.128343	
9.30444	  0.717241	  0.487141	  0.125841	
9.37601	  0.678945	  0.473989	  0.121081	
9.44758	  0.631380	  0.459138	  0.114625	
9.51915	  0.606619	  0.448803	  0.109017	
9.59073	  0.606592	  0.445383	  0.107424	
9.6623	  0.608389	  0.444376	  0.108346	
9.73387	  0.614295	  0.445002	  0.111298	
9.80544	  0.615093	  0.441835	  0.112855	
9.87702	  0.609257	  0.437690	  0.111574	
9.94859	  0.582529	  0.433934	  0.107654	
10.0202	  0.528125	  0.422488	  0.099069	
10.0917	  0.450722	  0.386872	  0.085891	
10.1633	  0.349453	  0.303985	  0.067708	
10.2349	  0.235126	  0.195340	  0.048681	
10.3065	  0.147328	  0.113522	  0.035775	
10.378	  0.099890	  0.072303	  0.029202	
10.4496	  0.083178	  0.059218	  0.026135	
10.5212	  0.084412	  0.059082	  0.024775	
10.5927	  0.091011	  0.060135	  0.024434	
10.6643	  0.096183	  0.059626	  0.024314	
10.7359	  0.097429	  0.059381	  0.023548	
10.8075	  0.094876	  0.059346	  0.023124	
10.879	  0.091313	  0.060234	  0.023794	
10.9506	  0.089289	  0.061693	  0.024097	
11.0222	  0.089559	  0.061891	  0.023177	
11.0937	  0.089256	  0.061149	  0.021637	
11.1653	  0.088124	  0.059101	  0.020896	
11.2369	  0.085496	  0.056630	  0.022071	
11.3085	  0.082859	  0.055375	  0.024312	
11.38	  0.082067	  0.054663	  0.026194	
11.4516	  0.083461	  0.053255	  0.026093	
11.5232	  0.085573	  0.052752	  0.024309	
11.5948	  0.086920	  0.053951	  0.021572	
11.6663	  0.084717	  0.055762	  0.019186	
11.7379	  0.081115	  0.057675	  0.018544	
11.8095	  0.080487	  0.058554	  0.019577	
